<?xml version="1.0" standalone="no"?><!DOCTYPE svg PUBLIC "-//W3C//DTD SVG 1.1//EN" "http://www.w3.org/Graphics/SVG/1.1/DTD/svg11.dtd"><svg t="1611191725880" class="icon" viewBox="0 0 1024 1024" version="1.1" xmlns="http://www.w3.org/2000/svg" p-id="2675" xmlns:xlink="http://www.w3.org/1999/xlink" width="200" height="200"><defs><style type="text/css"></style></defs><path d="M877.644911 292.710178v658.16084H146.355089V73.323231h511.902875V0.194249H73.226107v1023.805751h877.547786V292.710178z" p-id="2676" fill="#8a8a8a"></path><path d="M219.484071 219.581196v73.128982h363.039691L459.781336 438.968142H219.484071v73.128982h222.152136c-0.811275 9.97525-0.799848 18.579332 0.776996 23.389848 4.124932 12.603323 23.801198 30.451365 37.341486 31.342625 19.162079 1.256904 84.34971-24.681032 84.349711-24.681031l25.218072-30.051442H804.515929v-73.128982H650.716538l122.742426-146.257964H804.515929v-37.010121l135.688541-161.683609L828.168584 0 643.894975 219.581196H219.484071zM219.484071 658.355089h585.031858v73.128982H219.484071z" p-id="2677" fill="#8a8a8a"></path></svg>