<?xml version="1.0" standalone="no"?><!DOCTYPE svg PUBLIC "-//W3C//DTD SVG 1.1//EN" "http://www.w3.org/Graphics/SVG/1.1/DTD/svg11.dtd"><svg t="1611043678912" class="icon" viewBox="0 0 1024 1024" version="1.1" xmlns="http://www.w3.org/2000/svg" p-id="1935" xmlns:xlink="http://www.w3.org/1999/xlink" width="200" height="200"><defs><style type="text/css"></style></defs><path d="M938.666667 785.066667a16.896 16.896 0 0 1-6.331734-1.211734L512 615.714133 91.682133 783.854933A17.117867 17.117867 0 0 1 68.266667 768V597.333333c0-6.980267 4.266667-13.2608 10.752-15.854933l426.666666-169.8304a16.964267 16.964267 0 0 1 12.612267 0l426.666667 169.8304A17.066667 17.066667 0 0 1 955.733333 597.333333v170.666667a17.083733 17.083733 0 0 1-17.066666 17.066667zM512 580.266667a17.066667 17.066667 0 0 1 6.3488 1.211733L921.6 742.792533v-133.888l-409.6-163.037866-409.6 163.054933v133.888l403.2512-161.314133A16.725333 16.725333 0 0 1 512 580.266667z m426.666667-135.68a16.776533 16.776533 0 0 1-6.365867-1.245867L512 274.397867l-420.3008 168.96a17.066667 17.066667 0 1 1-12.731733-31.675734l426.666666-171.52a16.9472 16.9472 0 0 1 12.731734 0l426.666666 171.52A17.066667 17.066667 0 0 1 938.666667 444.586667z" p-id="1936" fill="#8a8a8a"></path></svg>